<mxfile host="app.diagrams.net" agent="Mozilla/5.0 (Macintosh; Intel Mac OS X 10_15_7) AppleWebKit/537.36 (KHTML, like Gecko) Chrome/130.0.0.0 Safari/537.36" version="24.8.1">
  <diagram name="第 1 页" id="RR9tRt_5y_lAAql5bR6n">
    <mxGraphModel dx="1051" dy="784" grid="1" gridSize="10" guides="1" tooltips="1" connect="1" arrows="1" fold="1" page="1" pageScale="1" pageWidth="827" pageHeight="1169" background="#fafafa" math="0" shadow="0">
      <root>
        <mxCell id="0" />
        <mxCell id="1" parent="0" />
        <mxCell id="c6upfnJrJwocFHqeNwqs-1" value="用户" style="shape=umlLifeline;perimeter=lifelinePerimeter;whiteSpace=wrap;container=1;dropTarget=0;collapsible=0;recursiveResize=0;outlineConnect=0;portConstraint=eastwest;newEdgeStyle={&quot;edgeStyle&quot;:&quot;elbowEdgeStyle&quot;,&quot;elbow&quot;:&quot;vertical&quot;,&quot;curved&quot;:0,&quot;rounded&quot;:0};size=65;fontSize=16;" parent="1" vertex="1">
          <mxGeometry x="20" y="20" width="150" height="1042" as="geometry" />
        </mxCell>
        <mxCell id="c6upfnJrJwocFHqeNwqs-2" value="前端应用" style="shape=umlLifeline;perimeter=lifelinePerimeter;whiteSpace=wrap;container=1;dropTarget=0;collapsible=0;recursiveResize=0;outlineConnect=0;portConstraint=eastwest;newEdgeStyle={&quot;edgeStyle&quot;:&quot;elbowEdgeStyle&quot;,&quot;elbow&quot;:&quot;vertical&quot;,&quot;curved&quot;:0,&quot;rounded&quot;:0};size=65;fontSize=16;" parent="1" vertex="1">
          <mxGeometry x="395" y="20" width="150" height="1042" as="geometry" />
        </mxCell>
        <mxCell id="c6upfnJrJwocFHqeNwqs-3" value="后端服务" style="shape=umlLifeline;perimeter=lifelinePerimeter;whiteSpace=wrap;container=1;dropTarget=0;collapsible=0;recursiveResize=0;outlineConnect=0;portConstraint=eastwest;newEdgeStyle={&quot;edgeStyle&quot;:&quot;elbowEdgeStyle&quot;,&quot;elbow&quot;:&quot;vertical&quot;,&quot;curved&quot;:0,&quot;rounded&quot;:0};size=65;fontSize=16;" parent="1" vertex="1">
          <mxGeometry x="785" y="20" width="150" height="1042" as="geometry" />
        </mxCell>
        <mxCell id="c6upfnJrJwocFHqeNwqs-4" value="数据库" style="shape=umlLifeline;perimeter=lifelinePerimeter;whiteSpace=wrap;container=1;dropTarget=0;collapsible=0;recursiveResize=0;outlineConnect=0;portConstraint=eastwest;newEdgeStyle={&quot;edgeStyle&quot;:&quot;elbowEdgeStyle&quot;,&quot;elbow&quot;:&quot;vertical&quot;,&quot;curved&quot;:0,&quot;rounded&quot;:0};size=65;fontSize=16;" parent="1" vertex="1">
          <mxGeometry x="1080" y="20" width="150" height="1042" as="geometry" />
        </mxCell>
        <mxCell id="c6upfnJrJwocFHqeNwqs-5" value="请求新闻列表（加载第一页）" style="verticalAlign=bottom;edgeStyle=elbowEdgeStyle;elbow=vertical;curved=0;rounded=0;endArrow=block;fontSize=16;" parent="1" source="c6upfnJrJwocFHqeNwqs-1" target="c6upfnJrJwocFHqeNwqs-2" edge="1">
          <mxGeometry relative="1" as="geometry">
            <Array as="points">
              <mxPoint x="291" y="121" />
            </Array>
          </mxGeometry>
        </mxCell>
        <mxCell id="c6upfnJrJwocFHqeNwqs-6" value="获取新闻列表（前10篇）" style="verticalAlign=bottom;edgeStyle=elbowEdgeStyle;elbow=vertical;curved=0;rounded=0;endArrow=block;fontSize=16;" parent="1" source="c6upfnJrJwocFHqeNwqs-2" target="c6upfnJrJwocFHqeNwqs-3" edge="1">
          <mxGeometry relative="1" as="geometry">
            <Array as="points">
              <mxPoint x="674" y="167" />
            </Array>
          </mxGeometry>
        </mxCell>
        <mxCell id="c6upfnJrJwocFHqeNwqs-7" value="查询新闻（当前分类，前10篇）" style="verticalAlign=bottom;edgeStyle=elbowEdgeStyle;elbow=vertical;curved=0;rounded=0;endArrow=block;fontSize=16;" parent="1" source="c6upfnJrJwocFHqeNwqs-3" target="c6upfnJrJwocFHqeNwqs-4" edge="1">
          <mxGeometry relative="1" as="geometry">
            <Array as="points">
              <mxPoint x="1016" y="213" />
            </Array>
          </mxGeometry>
        </mxCell>
        <mxCell id="c6upfnJrJwocFHqeNwqs-8" value="返回新闻列表" style="verticalAlign=bottom;edgeStyle=elbowEdgeStyle;elbow=vertical;curved=0;rounded=0;dashed=1;dashPattern=2 3;endArrow=block;fontSize=16;" parent="1" source="c6upfnJrJwocFHqeNwqs-4" target="c6upfnJrJwocFHqeNwqs-3" edge="1">
          <mxGeometry relative="1" as="geometry">
            <Array as="points">
              <mxPoint x="1019" y="259" />
            </Array>
          </mxGeometry>
        </mxCell>
        <mxCell id="c6upfnJrJwocFHqeNwqs-9" value="返回新闻列表" style="verticalAlign=bottom;edgeStyle=elbowEdgeStyle;elbow=vertical;curved=0;rounded=0;dashed=1;dashPattern=2 3;endArrow=block;fontSize=16;" parent="1" source="c6upfnJrJwocFHqeNwqs-3" target="c6upfnJrJwocFHqeNwqs-2" edge="1">
          <mxGeometry relative="1" as="geometry">
            <Array as="points">
              <mxPoint x="677" y="305" />
            </Array>
          </mxGeometry>
        </mxCell>
        <mxCell id="c6upfnJrJwocFHqeNwqs-10" value="展示新闻列表" style="verticalAlign=bottom;edgeStyle=elbowEdgeStyle;elbow=vertical;curved=0;rounded=0;dashed=1;dashPattern=2 3;endArrow=block;fontSize=16;" parent="1" source="c6upfnJrJwocFHqeNwqs-2" target="c6upfnJrJwocFHqeNwqs-1" edge="1">
          <mxGeometry relative="1" as="geometry">
            <Array as="points">
              <mxPoint x="294" y="351" />
            </Array>
          </mxGeometry>
        </mxCell>
        <mxCell id="c6upfnJrJwocFHqeNwqs-11" value="下滑加载更多新闻" style="verticalAlign=bottom;edgeStyle=elbowEdgeStyle;elbow=vertical;curved=0;rounded=0;endArrow=block;fontSize=16;" parent="1" source="c6upfnJrJwocFHqeNwqs-1" target="c6upfnJrJwocFHqeNwqs-2" edge="1">
          <mxGeometry relative="1" as="geometry">
            <Array as="points">
              <mxPoint x="291" y="397" />
            </Array>
          </mxGeometry>
        </mxCell>
        <mxCell id="c6upfnJrJwocFHqeNwqs-12" value="获取更多新闻（当前分类，发布时间之前）" style="verticalAlign=bottom;edgeStyle=elbowEdgeStyle;elbow=vertical;curved=0;rounded=0;endArrow=block;fontSize=16;" parent="1" source="c6upfnJrJwocFHqeNwqs-2" target="c6upfnJrJwocFHqeNwqs-3" edge="1">
          <mxGeometry relative="1" as="geometry">
            <Array as="points">
              <mxPoint x="674" y="443" />
            </Array>
          </mxGeometry>
        </mxCell>
        <mxCell id="c6upfnJrJwocFHqeNwqs-13" value="查询更多新闻" style="verticalAlign=bottom;edgeStyle=elbowEdgeStyle;elbow=vertical;curved=0;rounded=0;endArrow=block;fontSize=16;" parent="1" source="c6upfnJrJwocFHqeNwqs-3" target="c6upfnJrJwocFHqeNwqs-4" edge="1">
          <mxGeometry relative="1" as="geometry">
            <Array as="points">
              <mxPoint x="1016" y="489" />
            </Array>
          </mxGeometry>
        </mxCell>
        <mxCell id="c6upfnJrJwocFHqeNwqs-14" value="返回更多新闻列表" style="verticalAlign=bottom;edgeStyle=elbowEdgeStyle;elbow=vertical;curved=0;rounded=0;dashed=1;dashPattern=2 3;endArrow=block;fontSize=16;" parent="1" source="c6upfnJrJwocFHqeNwqs-4" target="c6upfnJrJwocFHqeNwqs-3" edge="1">
          <mxGeometry relative="1" as="geometry">
            <Array as="points">
              <mxPoint x="1019" y="535" />
            </Array>
          </mxGeometry>
        </mxCell>
        <mxCell id="c6upfnJrJwocFHqeNwqs-15" value="返回更多新闻" style="verticalAlign=bottom;edgeStyle=elbowEdgeStyle;elbow=vertical;curved=0;rounded=0;dashed=1;dashPattern=2 3;endArrow=block;fontSize=16;" parent="1" source="c6upfnJrJwocFHqeNwqs-3" target="c6upfnJrJwocFHqeNwqs-2" edge="1">
          <mxGeometry relative="1" as="geometry">
            <Array as="points">
              <mxPoint x="677" y="581" />
            </Array>
          </mxGeometry>
        </mxCell>
        <mxCell id="c6upfnJrJwocFHqeNwqs-16" value="展示更多新闻列表" style="verticalAlign=bottom;edgeStyle=elbowEdgeStyle;elbow=vertical;curved=0;rounded=0;dashed=1;dashPattern=2 3;endArrow=block;fontSize=16;" parent="1" source="c6upfnJrJwocFHqeNwqs-2" target="c6upfnJrJwocFHqeNwqs-1" edge="1">
          <mxGeometry relative="1" as="geometry">
            <Array as="points">
              <mxPoint x="294" y="627" />
            </Array>
          </mxGeometry>
        </mxCell>
        <mxCell id="c6upfnJrJwocFHqeNwqs-17" value="上滑加载新新闻" style="verticalAlign=bottom;edgeStyle=elbowEdgeStyle;elbow=vertical;curved=0;rounded=0;endArrow=block;fontSize=16;" parent="1" source="c6upfnJrJwocFHqeNwqs-1" target="c6upfnJrJwocFHqeNwqs-2" edge="1">
          <mxGeometry relative="1" as="geometry">
            <Array as="points">
              <mxPoint x="291" y="673" />
            </Array>
          </mxGeometry>
        </mxCell>
        <mxCell id="c6upfnJrJwocFHqeNwqs-18" value="获取更新的新闻（当前分类，发布时间之后）" style="verticalAlign=bottom;edgeStyle=elbowEdgeStyle;elbow=vertical;curved=0;rounded=0;endArrow=block;fontSize=16;" parent="1" source="c6upfnJrJwocFHqeNwqs-2" target="c6upfnJrJwocFHqeNwqs-3" edge="1">
          <mxGeometry relative="1" as="geometry">
            <Array as="points">
              <mxPoint x="674" y="719" />
            </Array>
          </mxGeometry>
        </mxCell>
        <mxCell id="c6upfnJrJwocFHqeNwqs-19" value="查询更新的新闻" style="verticalAlign=bottom;edgeStyle=elbowEdgeStyle;elbow=vertical;curved=0;rounded=0;endArrow=block;fontSize=16;" parent="1" source="c6upfnJrJwocFHqeNwqs-3" target="c6upfnJrJwocFHqeNwqs-4" edge="1">
          <mxGeometry relative="1" as="geometry">
            <Array as="points">
              <mxPoint x="1016" y="765" />
            </Array>
          </mxGeometry>
        </mxCell>
        <mxCell id="c6upfnJrJwocFHqeNwqs-20" value="返回更新新闻列表" style="verticalAlign=bottom;edgeStyle=elbowEdgeStyle;elbow=vertical;curved=0;rounded=0;dashed=1;dashPattern=2 3;endArrow=block;fontSize=16;" parent="1" source="c6upfnJrJwocFHqeNwqs-4" target="c6upfnJrJwocFHqeNwqs-3" edge="1">
          <mxGeometry relative="1" as="geometry">
            <Array as="points">
              <mxPoint x="1019" y="811" />
            </Array>
          </mxGeometry>
        </mxCell>
        <mxCell id="c6upfnJrJwocFHqeNwqs-21" value="返回更新新闻" style="verticalAlign=bottom;edgeStyle=elbowEdgeStyle;elbow=vertical;curved=0;rounded=0;dashed=1;dashPattern=2 3;endArrow=block;fontSize=16;" parent="1" source="c6upfnJrJwocFHqeNwqs-3" target="c6upfnJrJwocFHqeNwqs-2" edge="1">
          <mxGeometry relative="1" as="geometry">
            <Array as="points">
              <mxPoint x="677" y="857" />
            </Array>
          </mxGeometry>
        </mxCell>
        <mxCell id="c6upfnJrJwocFHqeNwqs-22" value="展示更新新闻列表" style="verticalAlign=bottom;edgeStyle=elbowEdgeStyle;elbow=vertical;curved=0;rounded=0;dashed=1;dashPattern=2 3;endArrow=block;fontSize=16;" parent="1" source="c6upfnJrJwocFHqeNwqs-2" target="c6upfnJrJwocFHqeNwqs-1" edge="1">
          <mxGeometry relative="1" as="geometry">
            <Array as="points">
              <mxPoint x="294" y="903" />
            </Array>
          </mxGeometry>
        </mxCell>
        <mxCell id="c6upfnJrJwocFHqeNwqs-23" value="如果没有更多新闻，显示“没有更多内容了”" style="verticalAlign=bottom;edgeStyle=elbowEdgeStyle;elbow=vertical;curved=0;rounded=0;endArrow=block;fontSize=16;" parent="1" source="c6upfnJrJwocFHqeNwqs-1" target="c6upfnJrJwocFHqeNwqs-2" edge="1">
          <mxGeometry relative="1" as="geometry">
            <Array as="points">
              <mxPoint x="291" y="957" />
            </Array>
          </mxGeometry>
        </mxCell>
      </root>
    </mxGraphModel>
  </diagram>
</mxfile>
